<svg width="29" height="13" viewBox="0 0 29 13" fill="none" xmlns="http://www.w3.org/2000/svg">
<g clip-path="url(#clip0_66_389)">
<path d="M20.5564 3.60123C21.3536 3.60123 21.9697 3.82705 22.4408 4.2787C22.9119 4.73029 23.1293 5.33246 23.1293 6.08517V9.69811H22.1147V8.87023H22.0784C21.6436 9.5477 21.0275 9.8864 20.3027 9.8864C19.6866 9.8864 19.1431 9.69817 18.7082 9.32187C18.3096 8.94552 18.0559 8.41864 18.0559 7.85411C18.0559 7.25193 18.2734 6.76264 18.7082 6.38629C19.1431 6.00993 19.7591 5.8594 20.4839 5.8594C21.1362 5.8594 21.6436 5.97234 22.0422 6.23576V5.97234C22.0422 5.62105 21.9159 5.26981 21.6633 5.04093L21.6073 4.99382C21.3174 4.73034 20.955 4.57982 20.5564 4.57982C19.9403 4.57982 19.4693 4.84329 19.1431 5.37017L18.2009 4.76787C18.7807 3.97752 19.5417 3.60123 20.5564 3.60123ZM15.4468 1.04205C16.097 1.04205 16.7149 1.27705 17.209 1.71529L17.2949 1.7947C17.8023 2.24635 18.0559 2.92382 18.0559 3.63887C18.0559 4.35393 17.8023 4.99376 17.2949 5.48299C16.7875 5.97229 16.1715 6.2357 15.4468 6.2357L13.7073 6.19805V9.69817H12.6201V1.04199L15.4468 1.04205ZM20.7013 6.76264C20.2665 6.76264 19.9041 6.87552 19.6142 7.10134C19.3243 7.28952 19.1793 7.55293 19.1793 7.89164C19.1793 8.19276 19.3243 8.45617 19.5417 8.60676C19.7954 8.79493 20.0853 8.90781 20.3752 8.90781C20.7811 8.90781 21.1869 8.74387 21.5044 8.44664L21.5711 8.38093C21.9335 8.04223 22.1147 7.62823 22.1147 7.17658C21.7885 6.91317 21.3174 6.76258 20.7014 6.76258L20.7013 6.76264ZM15.5193 2.09582H13.7073V5.1067H15.5193C15.9178 5.1067 16.3165 4.95617 16.5702 4.65511C17.1499 4.09058 17.1499 3.1497 16.6064 2.58511L16.5702 2.54746C16.2802 2.2464 15.9178 2.05823 15.5192 2.09587L15.5193 2.09582ZM29 3.7894L25.4124 12.3326H24.3252L25.666 9.35946L23.3105 3.82705H24.4702L26.1734 8.07981H26.2096L27.8766 3.82705H29V3.7894Z" fill="#5F6368"/>
<path d="M9.39487 5.44532C9.39487 5.10661 9.35862 4.76791 9.32237 4.4292H4.79265V6.34861H7.36555C7.25686 6.95073 6.93072 7.51526 6.42339 7.85402V9.09596H7.98163C8.8876 8.23038 9.39493 6.95073 9.39493 5.44538L9.39487 5.44532Z" fill="#4285F4"/>
<path d="M4.79259 10.3002C6.09714 10.3002 7.1843 9.84855 7.98157 9.09584L6.42333 7.8539C5.98844 8.15496 5.44486 8.34313 4.79259 8.34313C3.56043 8.34313 2.47327 7.47755 2.11088 6.27319H0.516449V7.55278C1.34992 9.24637 2.98066 10.3002 4.79259 10.3002Z" fill="#34A853"/>
<path d="M2.11088 6.27322C1.8935 5.67104 1.8935 4.99363 2.11088 4.35381V3.07422H0.51645C-0.17213 4.46675 -0.17213 6.12269 0.51645 7.55281L2.11088 6.27322Z" fill="#FBBC04"/>
<path d="M4.79259 2.32163C5.48111 2.32163 6.13339 2.5851 6.64077 3.07433L8.01782 1.64422C7.14805 0.816216 5.98844 0.326981 4.82878 0.364569C3.01685 0.364569 1.34992 1.41839 0.552643 3.11198L2.14713 4.39157C2.47327 3.18722 3.56043 2.32163 4.79259 2.32163Z" fill="#EA4335"/>
</g>
<defs>
<clipPath id="clip0_66_389">
<rect width="29" height="12" fill="white" transform="translate(0 0.362549)"/>
</clipPath>
</defs>
</svg>
