<svg width="26" height="21" viewBox="0 0 26 21" fill="none" xmlns="http://www.w3.org/2000/svg">
<g clip-path="url(#clip0_66_383)">
<path d="M4.72672 20.2633V18.9395C4.72672 18.432 4.41452 18.1012 3.87938 18.1012C3.61187 18.1012 3.32201 18.1894 3.12132 18.4762C2.96532 18.2335 2.74239 18.1012 2.40795 18.1012C2.18491 18.1012 1.96209 18.1673 1.78364 18.41V18.1453H1.31544V20.2633H1.78364V19.0939C1.78364 18.7189 1.98433 18.5424 2.29653 18.5424C2.60853 18.5424 2.76473 18.741 2.76473 19.0939V20.2633H3.23294V19.0939C3.23294 18.7189 3.45577 18.5424 3.74562 18.5424C4.05783 18.5424 4.21383 18.741 4.21383 19.0939V20.2633H4.72672ZM11.6605 18.1453H10.9025V17.5055H10.4343V18.1453H10.0107V18.5644H10.4342V19.5352C10.4342 20.0207 10.6349 20.3074 11.17 20.3074C11.3707 20.3074 11.5936 20.2413 11.7498 20.153L11.6159 19.7558C11.4821 19.8441 11.3261 19.8662 11.2146 19.8662C10.9917 19.8662 10.9025 19.7338 10.9025 19.5131V18.5644H11.6605V18.1453ZM15.6291 18.1011C15.3616 18.1011 15.1833 18.2335 15.0718 18.41V18.1453H14.6036V20.2633H15.0718V19.0719C15.0718 18.7189 15.2278 18.5204 15.5176 18.5204C15.6068 18.5204 15.7183 18.5425 15.8075 18.5645L15.9412 18.1233C15.8521 18.1012 15.7183 18.1012 15.6291 18.1012V18.1011ZM9.63168 18.3218C9.40865 18.1673 9.09655 18.1012 8.7621 18.1012C8.22707 18.1012 7.87038 18.3659 7.87038 18.7851C7.87038 19.1381 8.1379 19.3366 8.6061 19.4029L8.82903 19.425C9.0743 19.469 9.20806 19.5352 9.20806 19.6456C9.20806 19.8 9.02972 19.9103 8.71752 19.9103C8.40541 19.9103 8.16014 19.8 8.00404 19.6897L7.78111 20.0427C8.02638 20.2191 8.36083 20.3074 8.69517 20.3074C9.31948 20.3074 9.67627 20.0207 9.67627 19.6235C9.67627 19.2484 9.3864 19.0498 8.94044 18.9837L8.71752 18.9616C8.51683 18.9394 8.36083 18.8954 8.36083 18.7631C8.36083 18.6086 8.51683 18.5204 8.7621 18.5204C9.02972 18.5204 9.29723 18.6306 9.43099 18.6968L9.63168 18.3218ZM22.0726 18.1012C21.805 18.1012 21.6266 18.2335 21.5151 18.41V18.1453H21.0469V20.2633H21.5151V19.0719C21.5151 18.7189 21.6712 18.5204 21.961 18.5204C22.0502 18.5204 22.1617 18.5425 22.2509 18.5645L22.3847 18.1233C22.2955 18.1012 22.1617 18.1012 22.0726 18.1012ZM16.0974 19.2043C16.0974 19.8441 16.5432 20.3074 17.2344 20.3074C17.5465 20.3074 17.7695 20.2413 17.9924 20.0648L17.7695 19.6897C17.5911 19.8221 17.4128 19.8882 17.2121 19.8882C16.8331 19.8882 16.5656 19.6235 16.5656 19.2043C16.5656 18.8072 16.8331 18.5424 17.2121 18.5204C17.4128 18.5204 17.5911 18.5865 17.7695 18.7189L17.9924 18.3439C17.7695 18.1673 17.5465 18.1012 17.2344 18.1012C16.5432 18.1012 16.0974 18.5645 16.0974 19.2043ZM20.4227 19.2043V18.1453H19.9545V18.41C19.7984 18.2115 19.5755 18.1012 19.2856 18.1012C18.6836 18.1012 18.2154 18.5645 18.2154 19.2043C18.2154 19.8441 18.6836 20.3074 19.2856 20.3074C19.5977 20.3074 19.8207 20.1971 19.9545 19.9985V20.2633H20.4227V19.2043ZM18.7059 19.2043C18.7059 18.8292 18.9512 18.5204 19.3524 18.5204C19.7315 18.5204 19.9991 18.8072 19.9991 19.2043C19.9991 19.5793 19.7315 19.8882 19.3524 19.8882C18.9512 19.8661 18.7059 19.5793 18.7059 19.2043ZM13.1098 18.1012C12.4855 18.1012 12.0395 18.5424 12.0395 19.2043C12.0395 19.8662 12.4854 20.3074 13.132 20.3074C13.4441 20.3074 13.7563 20.2191 14.0016 20.0207L13.7786 19.6897C13.6002 19.8221 13.3773 19.9103 13.1544 19.9103C12.8645 19.9103 12.5747 19.7779 12.5077 19.4028H14.0908V19.2264C14.1131 18.5424 13.7119 18.1012 13.1098 18.1012ZM13.1098 18.4982C13.3995 18.4982 13.6003 18.6748 13.6448 19.0058H12.5301C12.5747 18.7189 12.7753 18.4982 13.1098 18.4982ZM24.7257 19.2043V17.3069H24.2575V18.41C24.1014 18.2115 23.8785 18.1012 23.5886 18.1012C22.9866 18.1012 22.5184 18.5645 22.5184 19.2043C22.5184 19.8441 22.9866 20.3074 23.5886 20.3074C23.9008 20.3074 24.1237 20.1971 24.2575 19.9985V20.2633H24.7257V19.2043ZM23.009 19.2043C23.009 18.8292 23.2542 18.5204 23.6555 18.5204C24.0346 18.5204 24.3021 18.8072 24.3021 19.2043C24.3021 19.5793 24.0346 19.8882 23.6555 19.8882C23.2542 19.8661 23.009 19.5793 23.009 19.2043ZM7.35749 19.2043V18.1453H6.88929V18.41C6.73319 18.2115 6.51026 18.1012 6.2204 18.1012C5.61844 18.1012 5.15023 18.5645 5.15023 19.2043C5.15023 19.8441 5.61844 20.3074 6.2204 20.3074C6.5326 20.3074 6.75553 20.1971 6.88929 19.9985V20.2633H7.35749V19.2043ZM5.61844 19.2043C5.61844 18.8292 5.86371 18.5204 6.26498 18.5204C6.64402 18.5204 6.91163 18.8072 6.91163 19.2043C6.91163 19.5793 6.64402 19.8882 6.26498 19.8882C5.86371 19.8661 5.61844 19.5793 5.61844 19.2043Z" fill="#151618"/>
<path d="M9.47558 2.06128H16.4986V14.5488H9.47558V2.06128Z" fill="#FF5F00"/>
<path d="M9.92154 8.30516C9.92154 5.76798 11.1255 3.51752 12.9759 2.06134C11.616 1.00235 9.8993 0.362549 8.02648 0.362549C3.58952 0.362549 0 3.91461 0 8.30516C0 12.6956 3.58952 16.2478 8.02638 16.2478C9.8992 16.2478 11.6159 15.608 12.9759 14.5489C11.1255 13.1148 9.92154 10.8423 9.92154 8.30516Z" fill="#EB001B"/>
<path d="M25.9742 8.30516C25.9742 12.6956 22.3847 16.2478 17.9478 16.2478C16.075 16.2478 14.3583 15.608 12.9983 14.5489C14.8711 13.0928 16.0528 10.8423 16.0528 8.30516C16.0528 5.76798 14.8487 3.51752 12.9983 2.06134C14.3582 1.00235 16.075 0.362549 17.9478 0.362549C22.3847 0.362549 25.9742 3.93672 25.9742 8.30516Z" fill="#F79E1B"/>
</g>
<defs>
<clipPath id="clip0_66_383">
<rect width="26" height="20" fill="white" transform="translate(0 0.362549)"/>
</clipPath>
</defs>
</svg>
