<svg width="10" height="13" viewBox="0 0 10 13" fill="none" xmlns="http://www.w3.org/2000/svg">
<g clip-path="url(#clip0_66_395)">
<path d="M8.48292 1.29665C7.93862 0.665576 6.95472 0.39502 5.69601 0.39502H2.04288C1.91834 0.395024 1.79789 0.44022 1.70318 0.522481C1.60847 0.604741 1.54572 0.718672 1.5262 0.843788L0.00510693 10.657C-0.0251274 10.8506 0.122177 11.0258 0.31499 11.0258H2.5703L3.13671 7.37131L3.11913 7.48575C3.15948 7.22743 3.37667 7.0369 3.63386 7.0369H4.70558C6.81097 7.0369 8.45952 6.16702 8.94108 3.65064C8.95538 3.57621 8.96776 3.50377 8.97847 3.43301C8.91769 3.40026 8.91769 3.40026 8.97847 3.43301C9.12187 2.50293 8.97749 1.86983 8.48292 1.29665Z" fill="#27346A"/>
<path d="M3.99968 3.09796C4.06133 3.0681 4.12877 3.05262 4.19706 3.05266H7.06104C7.40019 3.05266 7.71651 3.07511 8.00558 3.12244C8.08646 3.13556 8.16693 3.15122 8.24687 3.1694C8.36016 3.19483 8.47215 3.22596 8.58241 3.26266C8.72452 3.31094 8.85686 3.36717 8.97851 3.43301C9.12187 2.50257 8.97749 1.86983 8.48292 1.29665C7.93831 0.665576 6.95472 0.39502 5.69601 0.39502H2.04257C1.78534 0.39502 1.56651 0.58551 1.5262 0.843788L0.00510714 10.6567C-0.0251272 10.8505 0.122177 11.0255 0.314677 11.0255H2.5703L3.74542 3.44524C3.75697 3.37074 3.78615 3.3002 3.83044 3.2397C3.87473 3.17921 3.93281 3.13057 3.99968 3.09796Z" fill="#27346A"/>
<path d="M8.94129 3.65049C8.45973 6.16652 6.81121 7.03676 4.70578 7.03676H3.63375C3.37656 7.03676 3.15934 7.22729 3.11938 7.4856L2.41473 12.0295C2.3884 12.1989 2.51715 12.3523 2.68559 12.3523H4.58676C4.69566 12.3523 4.80099 12.3127 4.88378 12.2408C4.96658 12.1688 5.02142 12.0692 5.03844 11.9597L5.05695 11.8612L5.41527 9.55115L5.43836 9.42348C5.45538 9.31407 5.51021 9.21442 5.593 9.14246C5.67579 9.0705 5.7811 9.03094 5.89 9.0309H6.17453C8.01621 9.0309 9.45828 8.26981 9.87969 6.06865C10.0556 5.14878 9.96457 4.38078 9.49926 3.84134C9.35813 3.67795 9.18285 3.54301 8.97867 3.43286C8.96762 3.50399 8.95563 3.57607 8.94129 3.65049Z" fill="#2790C3"/>
<path d="M8.47468 3.22848C8.3996 3.20617 8.3238 3.18643 8.24742 3.16927C8.16744 3.15139 8.08698 3.13583 8.00613 3.12262C7.71675 3.07498 7.40066 3.05249 7.06121 3.05249H4.19757C4.12923 3.05233 4.06175 3.06794 4.00019 3.09815C3.93325 3.13065 3.87511 3.17927 3.8308 3.23978C3.78649 3.30029 3.75734 3.37088 3.74589 3.44543L3.13722 7.37118L3.11964 7.48562C3.15968 7.2273 3.37687 7.03677 3.6341 7.03677H4.70613C6.81152 7.03677 8.46003 6.16689 8.9416 3.6505C8.95593 3.57608 8.96796 3.50396 8.97902 3.43288C8.85707 3.36739 8.72507 3.31081 8.58293 3.26285C8.54706 3.25075 8.51098 3.23929 8.47472 3.22848" fill="#1F264F"/>
</g>
<defs>
<clipPath id="clip0_66_395">
<rect width="10" height="12" fill="white" transform="translate(0 0.362549)"/>
</clipPath>
</defs>
</svg>
