<svg width="29" height="13" fill="none" xmlns="http://www.w3.org/2000/svg"><g clip-path="url(#clip0_66_389)"><path d="M20.556 3.601c.798 0 1.414.226 1.885.678.47.451.688 1.053.688 1.806v3.613h-1.014V8.87h-.037c-.434.678-1.05 1.016-1.775 1.016-.616 0-1.16-.188-1.595-.564a2.034 2.034 0 01-.652-1.468c0-.602.217-1.091.652-1.468.435-.376 1.051-.527 1.776-.527.652 0 1.16.113 1.558.377v-.264c0-.351-.126-.702-.379-.931l-.056-.047a1.546 1.546 0 00-1.05-.414c-.617 0-1.088.263-1.414.79l-.942-.602c.58-.79 1.34-1.167 2.355-1.167zm-5.11-2.559c.651 0 1.269.235 1.763.673l.086.08c.507.451.76 1.129.76 1.844 0 .715-.253 1.355-.76 1.844a2.58 2.58 0 01-1.848.753l-1.74-.038v3.5H12.62V1.042h2.827zm5.255 5.72c-.434 0-.797.114-1.087.34a.892.892 0 00-.435.79c0 .3.145.564.363.715.253.188.543.3.833.3.406 0 .812-.163 1.13-.46l.066-.066c.362-.339.544-.753.544-1.204-.326-.264-.798-.414-1.414-.414zM15.52 2.097h-1.812v3.01h1.812c.399 0 .798-.15 1.051-.45.58-.565.58-1.506.036-2.07l-.036-.039c-.29-.3-.652-.489-1.05-.451zM29 3.789l-3.588 8.544h-1.087l1.341-2.974-2.355-5.532h1.16l1.702 4.253h.037l1.667-4.253H29v-.038z" fill="#5F6368"/><path d="M9.395 5.445c0-.338-.036-.677-.073-1.016h-4.53v1.92h2.574c-.11.602-.435 1.166-.943 1.505v1.242h1.559c.906-.866 1.413-2.145 1.413-3.65z" fill="#4285F4"/><path d="M4.793 10.3c1.304 0 2.391-.451 3.189-1.204L6.423 7.854c-.435.301-.978.49-1.63.49-1.233 0-2.32-.866-2.682-2.07H.516v1.279C1.35 9.246 2.981 10.3 4.793 10.3z" fill="#34A853"/><path d="M2.11 6.273a2.906 2.906 0 010-1.92V3.075H.517c-.688 1.393-.688 3.049 0 4.479l1.595-1.28z" fill="#FBBC04"/><path d="M4.793 2.322c.688 0 1.34.263 1.848.752l1.377-1.43C7.148.816 5.988.327 4.828.364 3.018.365 1.35 1.419.554 3.113l1.594 1.28c.326-1.205 1.413-2.07 2.646-2.07z" fill="#EA4335"/></g><defs><clipPath id="clip0_66_389"><path fill="#fff" transform="translate(0 .363)" d="M0 0h29v12H0z"/></clipPath></defs></svg>