<svg width="26" height="21" fill="none" xmlns="http://www.w3.org/2000/svg"><g clip-path="url(#clip0_66_383)"><path d="M4.727 20.263V18.94c0-.507-.312-.838-.848-.838-.267 0-.557.088-.758.375-.156-.242-.379-.375-.713-.375a.723.723 0 00-.624.309v-.265h-.469v2.118h.469v-1.17c0-.374.2-.55.513-.55.312 0 .468.198.468.55v1.17h.468v-1.17c0-.374.223-.55.513-.55.312 0 .468.198.468.55v1.17h.513zm6.934-2.118h-.758v-.64h-.469v.64h-.423v.42h.423v.97c0 .486.2.772.736.772.2 0 .424-.066.58-.154l-.134-.397a.74.74 0 01-.401.11c-.223 0-.313-.132-.313-.353v-.949h.759v-.419zm3.968-.044a.63.63 0 00-.557.309v-.265h-.468v2.118h.468v-1.191c0-.353.156-.552.446-.552.089 0 .2.023.29.044l.133-.44c-.089-.023-.223-.023-.312-.023zm-5.997.22c-.223-.154-.535-.22-.87-.22-.535 0-.892.265-.892.684 0 .353.268.552.736.618l.223.022c.245.044.38.11.38.22 0 .155-.18.265-.491.265a1.24 1.24 0 01-.714-.22l-.223.353c.245.176.58.264.914.264.624 0 .981-.286.981-.683 0-.376-.29-.574-.736-.64l-.222-.022c-.201-.023-.357-.067-.357-.199 0-.154.156-.243.401-.243.268 0 .535.11.669.177l.2-.375zm12.44-.22a.63.63 0 00-.557.309v-.265h-.468v2.118h.468v-1.191c0-.353.156-.552.446-.552.09 0 .2.023.29.044l.134-.44c-.09-.023-.223-.023-.312-.023zm-5.975 1.103c0 .64.446 1.103 1.137 1.103.313 0 .535-.066.758-.242l-.223-.375a.907.907 0 01-.557.198c-.379 0-.646-.265-.646-.684 0-.397.267-.662.646-.684.2 0 .38.067.558.199l.222-.375c-.223-.177-.445-.243-.758-.243-.69 0-1.137.463-1.137 1.103zm4.326 0v-1.059h-.468v.265a.809.809 0 00-.67-.309c-.601 0-1.07.463-1.07 1.103 0 .64.469 1.103 1.07 1.103.313 0 .536-.11.67-.308v.264h.468v-1.059zm-1.717 0c0-.375.245-.684.646-.684.38 0 .647.287.647.684 0 .375-.267.684-.647.684-.4-.022-.646-.309-.646-.684zm-5.596-1.103c-.624 0-1.07.441-1.07 1.103 0 .662.445 1.103 1.092 1.103.312 0 .624-.088.87-.286l-.223-.331c-.179.132-.402.22-.625.22-.29 0-.58-.132-.646-.507h1.583v-.177c.022-.684-.38-1.125-.981-1.125zm0 .397c.29 0 .49.177.535.508H12.53c.045-.287.245-.508.58-.508zm11.616.706v-1.897h-.468v1.103a.809.809 0 00-.67-.309c-.601 0-1.07.463-1.07 1.103 0 .64.469 1.103 1.07 1.103.313 0 .536-.11.67-.308v.264h.468v-1.059zm-1.717 0c0-.375.245-.684.646-.684.38 0 .647.287.647.684 0 .375-.267.684-.646.684-.402-.022-.647-.309-.647-.684zm-15.652 0v-1.059H6.89v.265a.809.809 0 00-.669-.309c-.602 0-1.07.463-1.07 1.103 0 .64.468 1.103 1.07 1.103.313 0 .536-.11.67-.308v.264h.467v-1.059zm-1.739 0c0-.375.246-.684.647-.684.379 0 .647.287.647.684 0 .375-.268.684-.647.684-.401-.022-.647-.309-.647-.684z" fill="#151618"/><path d="M9.476 2.061h7.023V14.55H9.476V2.06z" fill="#FF5F00"/><path d="M9.922 8.305c0-2.537 1.204-4.787 3.054-6.244A8.03 8.03 0 008.026.363C3.59.363 0 3.915 0 8.305c0 4.39 3.59 7.943 8.026 7.943a8.03 8.03 0 004.95-1.7 7.901 7.901 0 01-3.054-6.243z" fill="#EB001B"/><path d="M25.974 8.305c0 4.39-3.59 7.943-8.026 7.943a8.03 8.03 0 01-4.95-1.7 7.868 7.868 0 003.055-6.243c0-2.537-1.204-4.787-3.055-6.244a8.03 8.03 0 014.95-1.698c4.437 0 8.026 3.574 8.026 7.942z" fill="#F79E1B"/></g><defs><clipPath id="clip0_66_383"><path fill="#fff" transform="translate(0 .363)" d="M0 0h26v20H0z"/></clipPath></defs></svg>