<svg width="10" height="13" fill="none" xmlns="http://www.w3.org/2000/svg"><g clip-path="url(#clip0_66_395)"><path d="M8.483 1.297C7.939.666 6.955.395 5.696.395H2.043a.518.518 0 00-.34.127.535.535 0 00-.177.322l-1.52 9.813a.317.317 0 00.309.369H2.57l.567-3.655-.018.115a.524.524 0 01.515-.45h1.072c2.105 0 3.754-.869 4.235-3.385.014-.075.027-.147.037-.218-.06-.033-.06-.033 0 0 .144-.93 0-1.563-.495-2.136z" fill="#27346A"/><path d="M4 3.098a.452.452 0 01.197-.045h2.864c.34 0 .656.022.945.07a3.915 3.915 0 01.576.14c.143.048.275.104.397.17.143-.93-.002-1.563-.496-2.136C7.938.666 6.955.395 5.696.395H2.043a.526.526 0 00-.517.449l-1.52 9.813a.317.317 0 00.309.368H2.57l1.175-7.58A.47.47 0 014 3.098z" fill="#27346A"/><path d="M8.941 3.65c-.481 2.517-2.13 3.387-4.235 3.387H3.634a.524.524 0 00-.515.449l-.704 4.544a.278.278 0 00.27.322h1.902c.109 0 .214-.04.297-.111a.467.467 0 00.154-.281l.019-.099.358-2.31.023-.128a.467.467 0 01.155-.28.453.453 0 01.297-.112h.285c1.841 0 3.283-.761 3.705-2.962.176-.92.085-1.688-.38-2.228a1.82 1.82 0 00-.521-.408 6.052 6.052 0 01-.038.217z" fill="#2790C3"/><path d="M8.475 3.228a3.462 3.462 0 00-.469-.105 5.845 5.845 0 00-.945-.07H4.198a.458.458 0 00-.452.393L3.137 7.37l-.017.115a.524.524 0 01.514-.45h1.072c2.106 0 3.754-.87 4.236-3.385.014-.075.026-.147.037-.218a2.576 2.576 0 00-.504-.205" fill="#1F264F"/></g><defs><clipPath id="clip0_66_395"><path fill="#fff" transform="translate(0 .363)" d="M0 0h10v12H0z"/></clipPath></defs></svg>