<svg width="32" height="10" fill="none" xmlns="http://www.w3.org/2000/svg"><g clip-path="url(#clip0_2_478)"><path d="M16.53 3.184c-.018 1.388 1.237 2.162 2.181 2.622.97.472 1.297.775 1.293 1.198-.007.646-.774.931-1.492.942-1.252.02-1.98-.338-2.559-.608l-.451 2.11c.58.268 1.656.502 2.771.512 2.617 0 4.33-1.292 4.34-3.295.01-2.543-3.517-2.683-3.493-3.82.008-.344.337-.712 1.057-.806.357-.047 1.341-.083 2.457.431l.439-2.042A6.681 6.681 0 0020.74 0c-2.463 0-4.196 1.31-4.21 3.184zM27.282.176c-.478 0-.88.279-1.06.706l-3.74 8.928h2.616l.52-1.438h3.197l.302 1.438h2.305L29.41.176h-2.128zm.366 2.602l.755 3.618h-2.067l1.312-3.618zM13.358.176l-2.06 9.634h2.492L15.85.176H13.36zm-3.686 0L7.078 6.733l-1.05-5.575c-.123-.623-.61-.982-1.15-.982H.639l-.06.28c.871.189 1.86.493 2.46.82.366.198.471.373.591.846L5.617 9.81h2.634L12.289.176H9.672z" fill="url(#paint0_linear_2_478)"/></g><defs><linearGradient id="paint0_linear_2_478" x1="1418.57" y1="29.94" x2="1447.4" y2="-992.967" gradientUnits="userSpaceOnUse"><stop stop-color="#222357"/><stop offset="1" stop-color="#254AA5"/></linearGradient><clipPath id="clip0_2_478"><path fill="#fff" transform="translate(.575)" d="M0 0h30.85v10H0z"/></clipPath></defs></svg>